<svg width="71" height="56" viewBox="0 0 71 56" fill="none" xmlns="http://www.w3.org/2000/svg">
<path d="M70.4261 43.8751L56.2499 32.5342V39.3751H46.1114C47.9506 36.9272 49.2814 34.1358 49.9981 31.1561L53.9999 30.1209V21.6237L50.0041 20.6122C49.4562 18.3305 48.5527 16.1583 47.3097 14.1344L49.4271 10.5826L43.4149 4.57187L39.8631 6.68777C37.8401 5.44574 35.6679 4.54127 33.3863 3.9933L32.3753 0H23.8735L22.862 3.99574C20.5804 4.54367 18.4082 5.44718 16.3853 6.69021L12.8335 4.57431L6.82122 10.585L8.93866 14.1368C7.69664 16.1597 6.79216 18.333 6.24419 20.6146L2.25 21.6246V30.1238L6.24831 31.1444C6.97956 34.1908 8.33605 36.9717 10.1511 39.375H0V48.375H56.2499V55.2159L70.4261 43.8751ZM2.24993 46.1251V41.6251H12.1072C13.9263 43.4678 16.0492 44.9935 18.3901 46.1251H2.24993ZM28.1249 46.1251C18.5679 46.1251 10.2291 39.3424 8.29664 29.9984L8.154 29.3098L4.49975 28.3762V23.3754L8.15143 22.4518L8.29407 21.7612C8.80685 19.2772 9.78472 16.9258 11.2 14.7727L11.5873 14.1841L9.65213 10.9372L13.1868 7.4025L16.4338 9.33865L17.0224 8.95143C19.1754 7.53612 21.5269 6.55885 24.0109 6.04546L24.7014 5.90283L25.625 2.25011H30.6232L31.5468 5.9018L32.2374 6.04443C34.7214 6.55722 37.0728 7.53509 39.2259 8.9504L39.8145 9.33762L43.0615 7.40147L46.5961 10.9361L44.661 14.1831L45.0482 14.7717C46.4635 16.9248 47.4408 19.2762 47.9542 21.7602L48.0968 22.4508L51.7495 23.3754V28.3781L48.0923 29.3243L47.9507 30.0093C47.2275 33.4923 45.5847 36.7156 43.2031 39.374H36.1965C40.7863 36.6197 43.8746 31.608 43.8746 25.8753C43.8746 17.1901 36.8097 10.1253 28.1246 10.1253C19.4395 10.1253 12.3746 17.1901 12.3746 25.8753C12.3746 34.5604 19.4395 41.6252 28.1246 41.6252H58.4996V37.2161L66.8236 43.8752L58.4996 50.5343V46.1252L28.1249 46.1251ZM28.1249 39.3751C20.6809 39.3751 14.6249 33.3191 14.6249 25.8751C14.6249 18.4311 20.6809 12.3751 28.1249 12.3751C35.5689 12.3751 41.6249 18.4311 41.6249 25.8751C41.6249 33.3191 35.5689 39.3751 28.1249 39.3751Z" fill="black"/>
<path d="M19.7678 22.5258L17.6785 21.6911C17.3692 22.465 17.1462 23.2741 17.0146 24.0953L19.2374 24.4484C19.3414 23.7924 19.5202 23.1455 19.7678 22.5258L19.7678 22.5258Z" fill="black"/>
<path d="M19.143 26.446L16.8974 26.5841C16.9492 27.4178 17.0933 28.2445 17.3284 29.0435L19.4875 28.4112C19.3001 27.7734 19.1846 27.112 19.1429 26.446L19.143 26.446Z" fill="black"/>
<path d="M18.2918 31.3446C18.6981 32.0723 19.1853 32.7554 19.7398 33.3751L21.4162 31.8744C20.9717 31.3782 20.5815 30.8318 20.2576 30.2487L18.2918 31.3446Z" fill="black"/>
<path d="M31.4999 25.8751C31.4999 24.4106 30.5563 23.1731 29.2499 22.707V14.6251H26.9999V22.707C25.6937 23.1726 24.7499 24.41 24.7499 25.8751C24.7499 27.7359 26.2641 29.2501 28.1249 29.2501C28.6448 29.2501 29.1309 29.1231 29.5703 28.9116L32.9543 32.2956L34.5449 30.7051L31.1609 27.3211C31.3728 26.8811 31.4999 26.3949 31.4999 25.8751L31.4999 25.8751ZM28.1249 27.0001C27.5052 27.0001 26.9999 26.4949 26.9999 25.8751C26.9999 25.2554 27.5052 24.7501 28.1249 24.7501C28.7447 24.7501 29.2499 25.2554 29.2499 25.8751C29.2499 26.4949 28.7447 27.0001 28.1249 27.0001Z" fill="black"/>
</svg>
