<svg width="52" height="33" viewBox="0 0 52 33" fill="none" xmlns="http://www.w3.org/2000/svg">
<path d="M0 16.5256C0 15.6682 0.362414 14.9918 1.08816 14.4978L14.1019 5.98647C14.2666 5.8548 14.5137 5.78874 14.8444 5.78874C15.4046 5.78874 15.941 6.03577 16.4527 6.53124C16.9631 7.02671 17.2199 7.60312 17.2199 8.2628C17.2199 8.88992 16.9715 9.36864 16.4751 9.69804L6.03772 16.5261L16.4751 23.3552C16.9715 23.6199 17.2199 24.0977 17.2199 24.7904C17.2199 25.4506 16.9645 26.0195 16.4527 26.4973C15.941 26.9761 15.4046 27.2152 14.8444 27.2152C14.5137 27.2152 14.2666 27.1491 14.1019 27.0175L1.08816 18.5047C0.362402 18.0093 0 17.3505 0 16.5257V16.5256ZM19.9548 31.4843C19.9111 31.2242 19.9185 30.9725 19.9771 30.7278L29.0532 1.15711C29.2142 0.527654 29.6519 0.152223 30.3684 0.0312678C30.8885 -0.0571252 31.3905 0.0419676 31.8744 0.327618C32.3577 0.614667 32.6438 1.01801 32.7308 1.53813C32.7802 1.83121 32.7592 2.10291 32.6685 2.35226L23.6161 31.767C23.4277 32.4341 22.9434 32.8342 22.1633 32.9668C21.6092 33.0607 21.1235 32.9505 20.7019 32.6374C20.2809 32.3234 20.0325 31.9386 19.9548 31.4836L19.9548 31.4843ZM35.5971 26.4961C35.0853 26.0183 34.8299 25.4489 34.8299 24.7892C34.8299 24.1291 35.0607 23.6517 35.5226 23.354L45.9632 16.5249L35.5226 9.69683C35.0602 9.33349 34.8299 8.8557 34.8299 8.26159C34.8299 7.60143 35.0853 7.02499 35.5971 6.53003C36.1088 6.03456 36.6443 5.78753 37.2053 5.78753C37.5017 5.78753 37.7324 5.85452 37.8981 5.98525L50.9118 14.4966C51.6367 14.992 52 15.6685 52 16.5244C52 17.3832 51.6367 18.042 50.9118 18.5044L37.8981 27.0162C37.732 27.1479 37.5017 27.2139 37.2053 27.2139C36.6438 27.2139 36.1088 26.9748 35.5971 26.4961V26.4961Z" fill="black"/>
</svg>
